<svg width="3036" height="759" viewBox="0 0 3036 759" fill="none" xmlns="http://www.w3.org/2000/svg">
<g clip-path="url(#clip0_272_278)">
<path d="M0 284.603V759H569.25V421.676H412.781C403.092 443.866 386.059 462.042 364.545 473.151C343.031 484.259 318.349 487.621 294.647 482.672C270.946 477.723 249.672 464.765 234.4 445.976C219.129 427.187 210.793 403.712 210.793 379.5C210.793 355.288 219.129 331.814 234.4 313.024C249.672 294.235 270.946 281.277 294.647 276.328C318.349 271.379 343.031 274.741 364.545 285.849C386.059 296.958 403.092 315.134 412.781 337.324H569.25V0H284.603C209.125 0.0115049 136.742 30.0001 83.3711 83.3711C30.0001 136.742 0.0115049 209.125 0 284.603H0ZM632.515 759H969.838V0H632.515V759ZM1033.1 231.926V759H1560.18C1590.63 759 1620.79 753.001 1648.92 741.345C1677.06 729.689 1702.62 712.605 1724.16 691.068C1745.69 669.531 1762.77 643.963 1774.42 615.825C1786.07 587.686 1792.06 557.529 1792.06 527.074V0H1264.99C1234.53 -5.33206e-07 1204.37 5.99927 1176.24 17.6552C1148.1 29.3111 1122.54 46.3954 1101 67.9323C1079.47 89.4692 1062.39 115.037 1050.74 143.175C1039.09 171.314 1033.1 201.471 1033.1 231.926ZM1412.56 274.103C1433.4 274.103 1453.78 280.284 1471.11 291.865C1488.45 303.447 1501.96 319.907 1509.93 339.166C1517.91 358.425 1520 379.617 1515.93 400.062C1511.86 420.507 1501.83 439.287 1487.09 454.027C1472.35 468.767 1453.57 478.805 1433.12 482.872C1412.68 486.939 1391.48 484.852 1372.23 476.874C1352.97 468.897 1336.51 455.388 1324.92 438.056C1313.34 420.723 1307.16 400.346 1307.16 379.5C1307.16 351.547 1318.27 324.739 1338.03 304.973C1357.8 285.207 1384.61 274.103 1412.56 274.103ZM2698.68 0V346.219C2720.88 355.909 2739.07 372.947 2750.18 394.47C2761.3 415.993 2764.67 440.687 2759.72 464.4C2754.77 488.113 2741.8 509.398 2723.01 524.678C2704.21 539.957 2680.72 548.298 2656.5 548.298C2632.28 548.298 2608.79 539.957 2589.99 524.678C2571.2 509.398 2558.23 488.113 2553.28 464.4C2548.33 440.687 2551.7 415.993 2562.82 394.47C2573.93 372.947 2592.12 355.909 2614.32 346.219V0H2298.09V346.219C2320.28 355.908 2338.45 372.941 2349.56 394.455C2360.67 415.969 2364.03 440.651 2359.08 464.353C2354.14 488.054 2341.18 509.328 2322.39 524.6C2303.6 539.871 2280.12 548.207 2255.91 548.207C2231.7 548.207 2208.23 539.871 2189.44 524.6C2170.65 509.328 2157.69 488.054 2152.74 464.353C2147.79 440.651 2151.15 415.969 2162.26 394.455C2173.37 372.941 2191.55 355.908 2213.74 346.219V0H1876.41V505.986C1876.41 573.089 1903.07 637.444 1950.52 684.894C1997.97 732.343 2062.32 759 2129.43 759H2782.99C2850.09 759 2914.44 732.343 2961.89 684.894C3009.34 637.444 3036 573.089 3036 505.986V0H2698.68Z" fill="#FA9370"/>
</g>
<defs>
<clipPath id="clip0_272_278">
<rect width="3036" height="759" fill="white"/>
</clipPath>
</defs>
</svg>
